# xmcd CD database file
#
# Track frame offsets:
#	150
#	11418
#	24308
#	37560
#	47865
#	59210
#	71102
#	84810
#	98001
#	110745
#	124194
#	135454
#	146899
#	156261
#	168388
#	179843
#	192556
#
# Disc length: 2769 seconds
#
# Revision: 0
# Processed by: cddbd v1.5.2PL0 Copyright (c) Steve Scherf et al.
# Submitted via: CDex 1.51
#
DISCID=f10acf11
DTITLE=WoodyGuthrie - Deja vu definitive gold CD4
DYEAR=2006
DGENRE=Blues
TTITLE0=Ramblin' round
TTITLE1=Ranger's command
TTITLE2=Ride old paint
TTITLE3=Rubber dolly
TTITLE4=Sally goodin'
TTITLE5=Ship in the sky
TTITLE6=Sinking of the Reuben James
TTITLE7=Skip to my Lou
TTITLE8=So long it's been good to know you
TTITLE9=Sourwood mountain
TTITLE10=Springfield mountain
TTITLE11=Stewball
TTITLE12=Struggle blues
TTITLE13=Take a whiff on me
TTITLE14=Talking Columbia
TTITLE15=Talking dust bowl blues
TTITLE16=The great dust storm
EXTD=YEAR: 2006
EXTT0=
EXTT1=
EXTT2=
EXTT3=
EXTT4=
EXTT5=
EXTT6=
EXTT7=
EXTT8=
EXTT9=
EXTT10=
EXTT11=
EXTT12=
EXTT13=
EXTT14=
EXTT15=
EXTT16=
PLAYORDER=
